<svg width="521" height="139" viewBox="0 0 521 139" fill="none" xmlns="http://www.w3.org/2000/svg">
<rect width="231" height="1" transform="matrix(1 0 0 -1 0.199203 45.227)" fill="white" fill-opacity="0.15"/>
<path d="M15.1372 23.357L11.6932 33.227H10.7132L7.8992 25.149L5.0852 33.227H4.1192L0.661203 23.357H1.8232L4.6232 31.603L7.4932 23.357L8.3612 23.371L11.1892 31.617L14.0172 23.357H15.1372ZM20.0874 26.241C21.7207 26.241 22.5374 27.1417 22.5374 28.943V33.227H21.4034V29.013C21.4034 28.3783 21.2774 27.9163 21.0254 27.627C20.7827 27.3377 20.3907 27.193 19.8494 27.193C19.2241 27.193 18.7247 27.3843 18.3514 27.767C17.9781 28.1497 17.7914 28.6677 17.7914 29.321V33.227H16.6574V23.357H17.7914V27.501C18.0154 27.0903 18.3234 26.7777 18.7154 26.563C19.1167 26.3483 19.5741 26.241 20.0874 26.241ZM27.3864 26.241C28.2544 26.241 28.8984 26.465 29.3184 26.913C29.7478 27.3517 29.9624 28.0237 29.9624 28.929V33.227H28.8564V32.065C28.6791 32.4663 28.4084 32.779 28.0444 33.003C27.6804 33.2177 27.2604 33.325 26.7844 33.325C26.3458 33.325 25.9398 33.2363 25.5664 33.059C25.2024 32.8817 24.9131 32.6343 24.6984 32.317C24.4838 31.9997 24.3764 31.6497 24.3764 31.267C24.3764 30.7537 24.5071 30.357 24.7684 30.077C25.0298 29.7877 25.4591 29.5823 26.0564 29.461C26.6538 29.3303 27.4844 29.265 28.5484 29.265H28.8564V28.803C28.8564 28.2337 28.7398 27.823 28.5064 27.571C28.2731 27.3097 27.8951 27.179 27.3724 27.179C26.5884 27.179 25.8091 27.4217 25.0344 27.907L24.6564 27.081C25.0111 26.829 25.4358 26.6283 25.9304 26.479C26.4344 26.3203 26.9198 26.241 27.3864 26.241ZM26.9384 32.429C27.4984 32.429 27.9558 32.2423 28.3104 31.869C28.6744 31.4863 28.8564 30.9963 28.8564 30.399V29.993H28.6044C27.7831 29.993 27.1578 30.0303 26.7284 30.105C26.2991 30.1703 25.9911 30.287 25.8044 30.455C25.6271 30.6137 25.5384 30.8517 25.5384 31.169C25.5384 31.533 25.6691 31.8363 25.9304 32.079C26.2011 32.3123 26.5371 32.429 26.9384 32.429ZM35.0343 32.415C35.2396 32.415 35.4449 32.401 35.6503 32.373L35.5943 33.269C35.3796 33.3063 35.1463 33.325 34.8943 33.325C34.0729 33.325 33.4523 33.1103 33.0323 32.681C32.6216 32.2517 32.4163 31.6543 32.4163 30.889V27.305H31.0863V26.409H32.4163V24.337H33.5503V26.409H35.4823V27.305H33.5503V30.805C33.5503 31.8783 34.0449 32.415 35.0343 32.415ZM40.4055 26.409H41.5395V33.227H40.4055V26.409ZM41.6655 23.455V24.729H40.2935V23.455H41.6655ZM45.9694 33.325C44.8214 33.325 43.9114 33.031 43.2394 32.443L43.6174 31.603C43.9814 31.8923 44.35 32.1023 44.7234 32.233C45.106 32.3543 45.5354 32.415 46.0114 32.415C46.5154 32.415 46.898 32.331 47.1594 32.163C47.43 31.9857 47.5654 31.7337 47.5654 31.407C47.5654 31.1363 47.4767 30.9217 47.2994 30.763C47.122 30.6043 46.828 30.4783 46.4174 30.385L45.2694 30.119C44.6907 29.9883 44.2474 29.7643 43.9394 29.447C43.6314 29.1297 43.4774 28.7377 43.4774 28.271C43.4774 27.6643 43.7154 27.1743 44.1914 26.801C44.6674 26.4277 45.302 26.241 46.0954 26.241C46.5714 26.241 47.024 26.3203 47.4534 26.479C47.8827 26.6283 48.242 26.8477 48.5314 27.137L48.1534 27.963C47.528 27.431 46.842 27.165 46.0954 27.165C45.6194 27.165 45.246 27.2583 44.9754 27.445C44.714 27.6223 44.5834 27.8743 44.5834 28.201C44.5834 28.4717 44.6627 28.691 44.8214 28.859C44.9894 29.0177 45.2554 29.139 45.6194 29.223L46.7814 29.503C47.416 29.6523 47.8874 29.881 48.1954 30.189C48.5034 30.4877 48.6574 30.8797 48.6574 31.365C48.6574 31.9623 48.4147 32.4383 47.9294 32.793C47.4534 33.1477 46.8 33.325 45.9694 33.325ZM60.0153 26.423L55.9833 35.747H54.8213L55.9693 33.143L53.0853 26.423H54.2893L56.5713 31.995L58.8813 26.423H60.0153ZM63.9327 33.325C63.2887 33.325 62.7193 33.1803 62.2247 32.891C61.7393 32.6017 61.3613 32.191 61.0907 31.659C60.8293 31.1177 60.6987 30.4923 60.6987 29.783C60.6987 29.0737 60.8293 28.453 61.0907 27.921C61.3613 27.3797 61.7393 26.9643 62.2247 26.675C62.7193 26.3857 63.2887 26.241 63.9327 26.241C64.5767 26.241 65.146 26.3857 65.6407 26.675C66.1353 26.9643 66.5133 27.3797 66.7747 27.921C67.0453 28.453 67.1807 29.0737 67.1807 29.783C67.1807 30.4923 67.0453 31.1177 66.7747 31.659C66.5133 32.191 66.1353 32.6017 65.6407 32.891C65.146 33.1803 64.5767 33.325 63.9327 33.325ZM63.9327 32.387C64.6047 32.387 65.118 32.1677 65.4727 31.729C65.8367 31.281 66.0187 30.6323 66.0187 29.783C66.0187 28.9523 65.8367 28.313 65.4727 27.865C65.1087 27.4077 64.5953 27.179 63.9327 27.179C63.27 27.179 62.7567 27.4077 62.3927 27.865C62.0287 28.313 61.8467 28.9523 61.8467 29.783C61.8467 30.623 62.024 31.267 62.3787 31.715C62.7427 32.163 63.2607 32.387 63.9327 32.387ZM74.6103 26.409V33.227H73.5043V32.065C73.2896 32.4757 72.9863 32.7883 72.5943 33.003C72.2116 33.2177 71.7776 33.325 71.2923 33.325C70.4803 33.325 69.869 33.101 69.4583 32.653C69.0476 32.1957 68.8423 31.5237 68.8423 30.637V26.409H69.9763V30.609C69.9763 31.2157 70.0976 31.6637 70.3403 31.953C70.583 32.233 70.9656 32.373 71.4883 32.373C72.0856 32.373 72.5663 32.1817 72.9303 31.799C73.2943 31.407 73.4763 30.8937 73.4763 30.259V26.409H74.6103ZM80.582 27.221L79.84 27.291C79.14 27.3563 78.6313 27.5757 78.314 27.949C78.006 28.3223 77.852 28.7843 77.852 29.335V33.227H76.718V26.409H77.824V27.599C78.2066 26.8057 78.958 26.3623 80.078 26.269L80.484 26.241L80.582 27.221ZM88.6929 26.241C90.3262 26.241 91.1429 27.1417 91.1429 28.943V33.227H90.0089V29.013C90.0089 28.3783 89.8829 27.9163 89.6309 27.627C89.3882 27.3377 88.9962 27.193 88.4549 27.193C87.8295 27.193 87.3302 27.3843 86.9569 27.767C86.5835 28.1497 86.3969 28.6677 86.3969 29.321V33.227H85.2629V26.409H86.3829V27.529C86.6069 27.109 86.9195 26.7917 87.3209 26.577C87.7222 26.353 88.1795 26.241 88.6929 26.241ZM95.9919 26.241C96.8599 26.241 97.5039 26.465 97.9239 26.913C98.3532 27.3517 98.5679 28.0237 98.5679 28.929V33.227H97.4619V32.065C97.2846 32.4663 97.0139 32.779 96.6499 33.003C96.2859 33.2177 95.8659 33.325 95.3899 33.325C94.9512 33.325 94.5452 33.2363 94.1719 33.059C93.8079 32.8817 93.5186 32.6343 93.3039 32.317C93.0892 31.9997 92.9819 31.6497 92.9819 31.267C92.9819 30.7537 93.1126 30.357 93.3739 30.077C93.6352 29.7877 94.0646 29.5823 94.6619 29.461C95.2592 29.3303 96.0899 29.265 97.1539 29.265H97.4619V28.803C97.4619 28.2337 97.3452 27.823 97.1119 27.571C96.8786 27.3097 96.5006 27.179 95.9779 27.179C95.1939 27.179 94.4146 27.4217 93.6399 27.907L93.2619 27.081C93.6166 26.829 94.0412 26.6283 94.5359 26.479C95.0399 26.3203 95.5252 26.241 95.9919 26.241ZM95.5439 32.429C96.1039 32.429 96.5612 32.2423 96.9159 31.869C97.2799 31.4863 97.4619 30.9963 97.4619 30.399V29.993H97.2099C96.3886 29.993 95.7632 30.0303 95.3339 30.105C94.9046 30.1703 94.5966 30.287 94.4099 30.455C94.2326 30.6137 94.1439 30.8517 94.1439 31.169C94.1439 31.533 94.2746 31.8363 94.5359 32.079C94.8066 32.3123 95.1426 32.429 95.5439 32.429ZM108.232 26.241C109.744 26.241 110.5 27.1417 110.5 28.943V33.227H109.366V28.999C109.366 28.3737 109.254 27.9163 109.03 27.627C108.815 27.3377 108.465 27.193 107.98 27.193C107.41 27.193 106.962 27.3843 106.636 27.767C106.309 28.1497 106.146 28.6723 106.146 29.335V33.227H105.012V28.999C105.012 28.3643 104.9 27.907 104.676 27.627C104.452 27.3377 104.097 27.193 103.612 27.193C103.042 27.193 102.594 27.3843 102.268 27.767C101.941 28.1497 101.778 28.6723 101.778 29.335V33.227H100.644V26.409H101.764V27.487C101.969 27.0857 102.254 26.7777 102.618 26.563C102.982 26.3483 103.402 26.241 103.878 26.241C104.932 26.241 105.628 26.689 105.964 27.585C106.16 27.165 106.458 26.8383 106.86 26.605C107.261 26.3623 107.718 26.241 108.232 26.241ZM118.278 29.993H113.294C113.331 30.7863 113.546 31.3883 113.938 31.799C114.33 32.2003 114.885 32.401 115.604 32.401C116.397 32.401 117.125 32.1303 117.788 31.589L118.166 32.415C117.867 32.695 117.484 32.919 117.018 33.087C116.551 33.2457 116.075 33.325 115.59 33.325C114.526 33.325 113.686 33.0123 113.07 32.387C112.463 31.7617 112.16 30.8983 112.16 29.797C112.16 29.097 112.295 28.481 112.566 27.949C112.836 27.4077 113.214 26.9877 113.7 26.689C114.194 26.3903 114.754 26.241 115.38 26.241C116.285 26.241 116.994 26.5397 117.508 27.137C118.021 27.725 118.278 28.537 118.278 29.573V29.993ZM115.394 27.123C114.796 27.123 114.316 27.3097 113.952 27.683C113.597 28.0563 113.387 28.5837 113.322 29.265H117.284C117.265 28.5743 117.092 28.047 116.766 27.683C116.439 27.3097 115.982 27.123 115.394 27.123ZM121.208 26.409V27.851H119.78V26.409H121.208ZM121.208 31.799V33.227H119.78V31.799H121.208Z" fill="white"/>
<path d="M8.6752 4.06199V13.227H7.8562L2.3312 5.85599V13.227H1.3302V4.06199H2.1492L7.6742 11.433V4.06199H8.6752ZM13.3586 6.73999C14.1646 6.73999 14.7626 6.94799 15.1526 7.36399C15.5512 7.77132 15.7506 8.39532 15.7506 9.23599V13.227H14.7236V12.148C14.5589 12.5207 14.3076 12.811 13.9696 13.019C13.6316 13.2183 13.2416 13.318 12.7996 13.318C12.3922 13.318 12.0152 13.2357 11.6686 13.071C11.3306 12.9063 11.0619 12.6767 10.8626 12.382C10.6632 12.0873 10.5636 11.7623 10.5636 11.407C10.5636 10.9303 10.6849 10.562 10.9276 10.302C11.1702 10.0333 11.5689 9.84266 12.1236 9.72999C12.6782 9.60866 13.4496 9.54799 14.4376 9.54799H14.7236V9.11899C14.7236 8.59032 14.6152 8.20899 14.3986 7.97499C14.1819 7.73232 13.8309 7.61099 13.3456 7.61099C12.6176 7.61099 11.8939 7.83632 11.1746 8.28699L10.8236 7.51999C11.1529 7.28599 11.5472 7.09966 12.0066 6.96099C12.4746 6.81366 12.9252 6.73999 13.3586 6.73999ZM12.9426 12.486C13.4626 12.486 13.8872 12.3127 14.2166 11.966C14.5546 11.6107 14.7236 11.1557 14.7236 10.601V10.224H14.4896C13.7269 10.224 13.1462 10.2587 12.7476 10.328C12.3489 10.3887 12.0629 10.497 11.8896 10.653C11.7249 10.8003 11.6426 11.0213 11.6426 11.316C11.6426 11.654 11.7639 11.9357 12.0066 12.161C12.2579 12.3777 12.5699 12.486 12.9426 12.486ZM24.7241 6.73999C26.1281 6.73999 26.8301 7.57632 26.8301 9.24899V13.227H25.7771V9.30099C25.7771 8.72032 25.6731 8.29566 25.4651 8.02699C25.2658 7.75832 24.9408 7.62399 24.4901 7.62399C23.9614 7.62399 23.5454 7.80166 23.2421 8.15699C22.9388 8.51232 22.7871 8.99766 22.7871 9.61299V13.227H21.7341V9.30099C21.7341 8.71166 21.6301 8.28699 21.4221 8.02699C21.2141 7.75832 20.8848 7.62399 20.4341 7.62399C19.9054 7.62399 19.4894 7.80166 19.1861 8.15699C18.8828 8.51232 18.7311 8.99766 18.7311 9.61299V13.227H17.6781V6.89599H18.7181V7.89699C18.9088 7.52432 19.1731 7.23832 19.5111 7.03899C19.8491 6.83966 20.2391 6.73999 20.6811 6.73999C21.6604 6.73999 22.3061 7.15599 22.6181 7.98799C22.8001 7.59799 23.0774 7.29466 23.4501 7.07799C23.8228 6.85266 24.2474 6.73999 24.7241 6.73999ZM34.0524 10.224H29.4244C29.4591 10.9607 29.6584 11.5197 30.0224 11.901C30.3864 12.2737 30.9021 12.46 31.5694 12.46C32.3061 12.46 32.9821 12.2087 33.5974 11.706L33.9484 12.473C33.6711 12.733 33.3158 12.941 32.8824 13.097C32.4491 13.2443 32.0071 13.318 31.5564 13.318C30.5684 13.318 29.7884 13.0277 29.2164 12.447C28.6531 11.8663 28.3714 11.0647 28.3714 10.042C28.3714 9.39199 28.4971 8.81999 28.7484 8.32599C28.9998 7.82332 29.3508 7.43332 29.8014 7.15599C30.2608 6.87866 30.7808 6.73999 31.3614 6.73999C32.2021 6.73999 32.8608 7.01732 33.3374 7.57199C33.8141 8.11799 34.0524 8.87199 34.0524 9.83399V10.224ZM31.3744 7.55899C30.8198 7.55899 30.3734 7.73232 30.0354 8.07899C29.7061 8.42566 29.5111 8.91532 29.4504 9.54799H33.1294C33.1121 8.90666 32.9518 8.41699 32.6484 8.07899C32.3451 7.73232 31.9204 7.55899 31.3744 7.55899Z" fill="white" fill-opacity="0.5"/>
<rect width="516.818" height="1" transform="matrix(1 0 0 -1 0.199173 138.989)" fill="white" fill-opacity="0.15"/>
<path d="M1.41717 117.119H2.56517V126.989H1.41717V117.119ZM18.8286 120.171L16.2946 126.989H15.2026L13.2846 121.711L11.3526 126.989H10.2746L7.74058 120.171H8.91658L10.8486 125.645L12.8226 120.171H13.8026L15.7486 125.645L17.6946 120.171H18.8286ZM22.8747 120.003C23.7427 120.003 24.3867 120.227 24.8067 120.675C25.236 121.113 25.4507 121.785 25.4507 122.691V126.989H24.3447V125.827C24.1674 126.228 23.8967 126.541 23.5327 126.765C23.1687 126.979 22.7487 127.087 22.2727 127.087C21.834 127.087 21.428 126.998 21.0547 126.821C20.6907 126.643 20.4014 126.396 20.1867 126.079C19.972 125.761 19.8647 125.411 19.8647 125.029C19.8647 124.515 19.9954 124.119 20.2567 123.839C20.518 123.549 20.9474 123.344 21.5447 123.223C22.142 123.092 22.9727 123.027 24.0367 123.027H24.3447V122.565C24.3447 121.995 24.228 121.585 23.9947 121.333C23.7614 121.071 23.3834 120.941 22.8607 120.941C22.0767 120.941 21.2974 121.183 20.5227 121.669L20.1447 120.843C20.4994 120.591 20.924 120.39 21.4187 120.241C21.9227 120.082 22.408 120.003 22.8747 120.003ZM22.4267 126.191C22.9867 126.191 23.444 126.004 23.7987 125.631C24.1627 125.248 24.3447 124.758 24.3447 124.161V123.755H24.0927C23.2714 123.755 22.646 123.792 22.2167 123.867C21.7874 123.932 21.4794 124.049 21.2927 124.217C21.1154 124.375 21.0267 124.613 21.0267 124.931C21.0267 125.295 21.1574 125.598 21.4187 125.841C21.6894 126.074 22.0254 126.191 22.4267 126.191ZM30.9565 120.003C32.5899 120.003 33.4065 120.903 33.4065 122.705V126.989H32.2725V122.775C32.2725 122.14 32.1465 121.678 31.8945 121.389C31.6519 121.099 31.2599 120.955 30.7185 120.955C30.0932 120.955 29.5939 121.146 29.2205 121.529C28.8472 121.911 28.6605 122.429 28.6605 123.083V126.989H27.5265V120.171H28.6465V121.291C28.8705 120.871 29.1832 120.553 29.5845 120.339C29.9859 120.115 30.4432 120.003 30.9565 120.003ZM38.4795 126.177C38.6849 126.177 38.8902 126.163 39.0955 126.135L39.0395 127.031C38.8249 127.068 38.5915 127.087 38.3395 127.087C37.5182 127.087 36.8975 126.872 36.4775 126.443C36.0669 126.013 35.8615 125.416 35.8615 124.651V121.067H34.5315V120.171H35.8615V118.099H36.9955V120.171H38.9275V121.067H36.9955V124.567C36.9955 125.64 37.4902 126.177 38.4795 126.177ZM46.8467 126.177C47.0521 126.177 47.2574 126.163 47.4627 126.135L47.4067 127.031C47.1921 127.068 46.9587 127.087 46.7067 127.087C45.8854 127.087 45.2647 126.872 44.8447 126.443C44.4341 126.013 44.2287 125.416 44.2287 124.651V121.067H42.8987V120.171H44.2287V118.099H45.3627V120.171H47.2947V121.067H45.3627V124.567C45.3627 125.64 45.8574 126.177 46.8467 126.177ZM51.4365 127.087C50.7925 127.087 50.2232 126.942 49.7285 126.653C49.2432 126.363 48.8652 125.953 48.5945 125.421C48.3332 124.879 48.2025 124.254 48.2025 123.545C48.2025 122.835 48.3332 122.215 48.5945 121.683C48.8652 121.141 49.2432 120.726 49.7285 120.437C50.2232 120.147 50.7925 120.003 51.4365 120.003C52.0805 120.003 52.6499 120.147 53.1445 120.437C53.6392 120.726 54.0172 121.141 54.2785 121.683C54.5492 122.215 54.6845 122.835 54.6845 123.545C54.6845 124.254 54.5492 124.879 54.2785 125.421C54.0172 125.953 53.6392 126.363 53.1445 126.653C52.6499 126.942 52.0805 127.087 51.4365 127.087ZM51.4365 126.149C52.1085 126.149 52.6219 125.929 52.9765 125.491C53.3405 125.043 53.5225 124.394 53.5225 123.545C53.5225 122.714 53.3405 122.075 52.9765 121.627C52.6125 121.169 52.0992 120.941 51.4365 120.941C50.7739 120.941 50.2605 121.169 49.8965 121.627C49.5325 122.075 49.3505 122.714 49.3505 123.545C49.3505 124.385 49.5279 125.029 49.8825 125.477C50.2465 125.925 50.7645 126.149 51.4365 126.149ZM64.5895 126.989L61.1175 123.727V126.989H59.9835V117.119H61.1175V123.265L64.2955 120.185H65.7375L62.3495 123.447L66.0595 126.989H64.5895ZM70.4135 120.003C72.0469 120.003 72.8635 120.903 72.8635 122.705V126.989H71.7295V122.775C71.7295 122.14 71.6035 121.678 71.3515 121.389C71.1089 121.099 70.7169 120.955 70.1755 120.955C69.5502 120.955 69.0509 121.146 68.6775 121.529C68.3042 121.911 68.1175 122.429 68.1175 123.083V126.989H66.9835V120.171H68.1035V121.291C68.3275 120.871 68.6402 120.553 69.0415 120.339C69.4429 120.115 69.9002 120.003 70.4135 120.003ZM77.7686 127.087C77.1246 127.087 76.5552 126.942 76.0606 126.653C75.5752 126.363 75.1972 125.953 74.9266 125.421C74.6652 124.879 74.5346 124.254 74.5346 123.545C74.5346 122.835 74.6652 122.215 74.9266 121.683C75.1972 121.141 75.5752 120.726 76.0606 120.437C76.5552 120.147 77.1246 120.003 77.7686 120.003C78.4126 120.003 78.9819 120.147 79.4766 120.437C79.9712 120.726 80.3492 121.141 80.6106 121.683C80.8812 122.215 81.0166 122.835 81.0166 123.545C81.0166 124.254 80.8812 124.879 80.6106 125.421C80.3492 125.953 79.9712 126.363 79.4766 126.653C78.9819 126.942 78.4126 127.087 77.7686 127.087ZM77.7686 126.149C78.4406 126.149 78.9539 125.929 79.3086 125.491C79.6726 125.043 79.8546 124.394 79.8546 123.545C79.8546 122.714 79.6726 122.075 79.3086 121.627C78.9446 121.169 78.4312 120.941 77.7686 120.941C77.1059 120.941 76.5926 121.169 76.2286 121.627C75.8646 122.075 75.6826 122.714 75.6826 123.545C75.6826 124.385 75.8599 125.029 76.2146 125.477C76.5786 125.925 77.0966 126.149 77.7686 126.149ZM93.0122 120.171L90.4782 126.989H89.3862L87.4682 121.711L85.5362 126.989H84.4582L81.9242 120.171H83.1002L85.0322 125.645L87.0062 120.171H87.9862L89.9322 125.645L91.8782 120.171H93.0122ZM95.6693 120.171V121.613H94.2413V120.171H95.6693ZM95.6693 125.561V126.989H94.2413V125.561H95.6693Z" fill="white"/>
<path d="M6.76417 106.82C6.95484 106.88 7.12384 106.98 7.27117 107.119C7.41851 107.266 7.57017 107.465 7.72617 107.717L8.59717 109.121L7.70017 109.589L6.62117 107.834C6.31784 107.34 5.83251 107.093 5.16517 107.093C4.31584 107.093 3.57484 106.902 2.94217 106.521C2.31817 106.139 1.83717 105.598 1.49917 104.896C1.16117 104.194 0.992173 103.366 0.992173 102.413C0.992173 101.451 1.15684 100.619 1.48617 99.9168C1.82417 99.2061 2.30517 98.6644 2.92917 98.2918C3.56184 97.9104 4.30717 97.7198 5.16517 97.7198C6.01451 97.7198 6.75117 97.9104 7.37517 98.2918C8.00784 98.6644 8.49317 99.2061 8.83117 99.9168C9.16917 100.619 9.33817 101.446 9.33817 102.4C9.33817 103.509 9.11284 104.449 8.66217 105.221C8.22017 105.983 7.58751 106.516 6.76417 106.82ZM2.08417 102.4C2.08417 103.604 2.35284 104.536 2.89017 105.195C3.43617 105.853 4.19451 106.183 5.16517 106.183C6.13584 106.183 6.88984 105.858 7.42717 105.208C7.97317 104.549 8.24617 103.613 8.24617 102.4C8.24617 101.186 7.97751 100.255 7.44017 99.6048C6.90284 98.9548 6.14451 98.6298 5.16517 98.6298C4.19451 98.6298 3.43617 98.9591 2.89017 99.6178C2.35284 100.268 2.08417 101.195 2.08417 102.4ZM16.4319 100.658V106.989H15.4049V105.91C15.2056 106.291 14.9239 106.581 14.5599 106.781C14.2046 106.98 13.8016 107.08 13.3509 107.08C12.5969 107.08 12.0292 106.872 11.6479 106.456C11.2666 106.031 11.0759 105.407 11.0759 104.584V100.658H12.1289V104.558C12.1289 105.121 12.2416 105.537 12.4669 105.806C12.6922 106.066 13.0476 106.196 13.5329 106.196C14.0876 106.196 14.5339 106.018 14.8719 105.663C15.2099 105.299 15.3789 104.822 15.3789 104.233V100.658H16.4319ZM23.693 103.986H19.065C19.0997 104.722 19.299 105.281 19.663 105.663C20.027 106.035 20.5427 106.222 21.21 106.222C21.9467 106.222 22.6227 105.97 23.238 105.468L23.589 106.235C23.3117 106.495 22.9564 106.703 22.523 106.859C22.0897 107.006 21.6477 107.08 21.197 107.08C20.209 107.08 19.429 106.789 18.857 106.209C18.2937 105.628 18.012 104.826 18.012 103.804C18.012 103.154 18.1377 102.582 18.389 102.088C18.6404 101.585 18.9914 101.195 19.442 100.918C19.9014 100.64 20.4214 100.502 21.002 100.502C21.8427 100.502 22.5014 100.779 22.978 101.334C23.4547 101.88 23.693 102.634 23.693 103.596V103.986ZM21.015 101.321C20.4604 101.321 20.014 101.494 19.676 101.841C19.3467 102.187 19.1517 102.677 19.091 103.31H22.77C22.7527 102.668 22.5924 102.179 22.289 101.841C21.9857 101.494 21.561 101.321 21.015 101.321ZM27.3895 107.08C26.3235 107.08 25.4785 106.807 24.8545 106.261L25.2055 105.481C25.5435 105.749 25.8858 105.944 26.2325 106.066C26.5878 106.178 26.9865 106.235 27.4285 106.235C27.8965 106.235 28.2518 106.157 28.4945 106.001C28.7458 105.836 28.8715 105.602 28.8715 105.299C28.8715 105.047 28.7892 104.848 28.6245 104.701C28.4598 104.553 28.1868 104.436 27.8055 104.35L26.7395 104.103C26.2022 103.981 25.7905 103.773 25.5045 103.479C25.2185 103.184 25.0755 102.82 25.0755 102.387C25.0755 101.823 25.2965 101.368 25.7385 101.022C26.1805 100.675 26.7698 100.502 27.5065 100.502C27.9485 100.502 28.3688 100.575 28.7675 100.723C29.1662 100.861 29.4998 101.065 29.7685 101.334L29.4175 102.101C28.8368 101.607 28.1998 101.36 27.5065 101.36C27.0645 101.36 26.7178 101.446 26.4665 101.62C26.2238 101.784 26.1025 102.018 26.1025 102.322C26.1025 102.573 26.1762 102.777 26.3235 102.933C26.4795 103.08 26.7265 103.193 27.0645 103.271L28.1435 103.531C28.7328 103.669 29.1705 103.882 29.4565 104.168C29.7425 104.445 29.8855 104.809 29.8855 105.26C29.8855 105.814 29.6602 106.256 29.2095 106.586C28.7675 106.915 28.1608 107.08 27.3895 107.08ZM34.2091 106.235C34.3998 106.235 34.5904 106.222 34.7811 106.196L34.7291 107.028C34.5298 107.062 34.3131 107.08 34.0791 107.08C33.3164 107.08 32.7401 106.88 32.3501 106.482C31.9688 106.083 31.7781 105.528 31.7781 104.818V101.49H30.5431V100.658H31.7781V98.7338H32.8311V100.658H34.6251V101.49H32.8311V104.74C32.8311 105.736 33.2904 106.235 34.2091 106.235ZM35.8451 100.658H36.8981V106.989H35.8451V100.658ZM37.0151 97.9148V99.0978H35.7411V97.9148H37.0151ZM41.4926 107.08C40.8946 107.08 40.3659 106.945 39.9066 106.677C39.4559 106.408 39.1049 106.027 38.8536 105.533C38.6109 105.03 38.4896 104.449 38.4896 103.791C38.4896 103.132 38.6109 102.556 38.8536 102.062C39.1049 101.559 39.4559 101.173 39.9066 100.905C40.3659 100.636 40.8946 100.502 41.4926 100.502C42.0906 100.502 42.6192 100.636 43.0786 100.905C43.5379 101.173 43.8889 101.559 44.1316 102.062C44.3829 102.556 44.5086 103.132 44.5086 103.791C44.5086 104.449 44.3829 105.03 44.1316 105.533C43.8889 106.027 43.5379 106.408 43.0786 106.677C42.6192 106.945 42.0906 107.08 41.4926 107.08ZM41.4926 106.209C42.1166 106.209 42.5932 106.005 42.9226 105.598C43.2606 105.182 43.4296 104.579 43.4296 103.791C43.4296 103.019 43.2606 102.426 42.9226 102.01C42.5846 101.585 42.1079 101.373 41.4926 101.373C40.8772 101.373 40.4006 101.585 40.0626 102.01C39.7246 102.426 39.5556 103.019 39.5556 103.791C39.5556 104.571 39.7202 105.169 40.0496 105.585C40.3876 106.001 40.8686 106.209 41.4926 106.209ZM49.2625 100.502C50.7792 100.502 51.5375 101.338 51.5375 103.011V106.989H50.4845V103.076C50.4845 102.486 50.3675 102.057 50.1335 101.789C49.9082 101.52 49.5442 101.386 49.0415 101.386C48.4608 101.386 47.9972 101.563 47.6505 101.919C47.3038 102.274 47.1305 102.755 47.1305 103.362V106.989H46.0775V100.658H47.1175V101.698C47.3255 101.308 47.6158 101.013 47.9885 100.814C48.3612 100.606 48.7858 100.502 49.2625 100.502Z" fill="white" fill-opacity="0.5"/>
<rect width="231" height="1" transform="matrix(1 0 0 -1 289.199 45.227)" fill="white" fill-opacity="0.15"/>
<path d="M293.973 28.565V33.227H292.825V28.551L288.947 23.357H290.277L293.413 27.613L296.549 23.357H297.851L293.973 28.565ZM300.419 33.325C299.775 33.325 299.206 33.1803 298.711 32.891C298.226 32.6017 297.848 32.191 297.577 31.659C297.316 31.1177 297.185 30.4923 297.185 29.783C297.185 29.0737 297.316 28.453 297.577 27.921C297.848 27.3797 298.226 26.9643 298.711 26.675C299.206 26.3857 299.775 26.241 300.419 26.241C301.063 26.241 301.632 26.3857 302.127 26.675C302.622 26.9643 303 27.3797 303.261 27.921C303.532 28.453 303.667 29.0737 303.667 29.783C303.667 30.4923 303.532 31.1177 303.261 31.659C303 32.191 302.622 32.6017 302.127 32.891C301.632 33.1803 301.063 33.325 300.419 33.325ZM300.419 32.387C301.091 32.387 301.604 32.1677 301.959 31.729C302.323 31.281 302.505 30.6323 302.505 29.783C302.505 28.9523 302.323 28.313 301.959 27.865C301.595 27.4077 301.082 27.179 300.419 27.179C299.756 27.179 299.243 27.4077 298.879 27.865C298.515 28.313 298.333 28.9523 298.333 29.783C298.333 30.623 298.51 31.267 298.865 31.715C299.229 32.163 299.747 32.387 300.419 32.387ZM311.097 26.409V33.227H309.991V32.065C309.776 32.4757 309.473 32.7883 309.081 33.003C308.698 33.2177 308.264 33.325 307.779 33.325C306.967 33.325 306.355 33.101 305.945 32.653C305.534 32.1957 305.329 31.5237 305.329 30.637V26.409H306.463V30.609C306.463 31.2157 306.584 31.6637 306.827 31.953C307.069 32.233 307.452 32.373 307.975 32.373C308.572 32.373 309.053 32.1817 309.417 31.799C309.781 31.407 309.963 30.8937 309.963 30.259V26.409H311.097ZM317.068 27.221L316.326 27.291C315.626 27.3563 315.118 27.5757 314.8 27.949C314.492 28.3223 314.338 28.7843 314.338 29.335V33.227H313.204V26.409H314.31V27.599C314.693 26.8057 315.444 26.3623 316.564 26.269L316.97 26.241L317.068 27.221ZM325.179 26.241C325.777 26.241 326.304 26.3903 326.761 26.689C327.219 26.9877 327.573 27.4077 327.825 27.949C328.077 28.481 328.203 29.1017 328.203 29.811C328.203 30.5203 328.077 31.141 327.825 31.673C327.573 32.1957 327.219 32.6017 326.761 32.891C326.313 33.1803 325.786 33.325 325.179 33.325C324.647 33.325 324.181 33.2083 323.779 32.975C323.387 32.7417 323.089 32.4103 322.883 31.981V35.747H321.749V26.409H322.883V27.585C323.089 27.1557 323.387 26.8243 323.779 26.591C324.181 26.3577 324.647 26.241 325.179 26.241ZM324.955 32.387C325.618 32.387 326.131 32.163 326.495 31.715C326.859 31.267 327.041 30.6323 327.041 29.811C327.041 28.9897 326.859 28.3503 326.495 27.893C326.131 27.4263 325.618 27.193 324.955 27.193C324.293 27.193 323.779 27.417 323.415 27.865C323.061 28.313 322.883 28.9523 322.883 29.783C322.883 30.6137 323.061 31.2577 323.415 31.715C323.779 32.163 324.293 32.387 324.955 32.387ZM333.328 26.241C334.961 26.241 335.778 27.1417 335.778 28.943V33.227H334.644V29.013C334.644 28.3783 334.518 27.9163 334.266 27.627C334.023 27.3377 333.631 27.193 333.09 27.193C332.464 27.193 331.965 27.3843 331.592 27.767C331.218 28.1497 331.032 28.6677 331.032 29.321V33.227H329.898V23.357H331.032V27.501C331.256 27.0903 331.564 26.7777 331.956 26.563C332.357 26.3483 332.814 26.241 333.328 26.241ZM340.683 33.325C340.039 33.325 339.469 33.1803 338.975 32.891C338.489 32.6017 338.111 32.191 337.841 31.659C337.579 31.1177 337.449 30.4923 337.449 29.783C337.449 29.0737 337.579 28.453 337.841 27.921C338.111 27.3797 338.489 26.9643 338.975 26.675C339.469 26.3857 340.039 26.241 340.683 26.241C341.327 26.241 341.896 26.3857 342.391 26.675C342.885 26.9643 343.263 27.3797 343.525 27.921C343.795 28.453 343.931 29.0737 343.931 29.783C343.931 30.4923 343.795 31.1177 343.525 31.659C343.263 32.191 342.885 32.6017 342.391 32.891C341.896 33.1803 341.327 33.325 340.683 33.325ZM340.683 32.387C341.355 32.387 341.868 32.1677 342.223 31.729C342.587 31.281 342.769 30.6323 342.769 29.783C342.769 28.9523 342.587 28.313 342.223 27.865C341.859 27.4077 341.345 27.179 340.683 27.179C340.02 27.179 339.507 27.4077 339.143 27.865C338.779 28.313 338.597 28.9523 338.597 29.783C338.597 30.623 338.774 31.267 339.129 31.715C339.493 32.163 340.011 32.387 340.683 32.387ZM349.05 26.241C350.684 26.241 351.5 27.1417 351.5 28.943V33.227H350.366V29.013C350.366 28.3783 350.24 27.9163 349.988 27.627C349.746 27.3377 349.354 27.193 348.812 27.193C348.187 27.193 347.688 27.3843 347.314 27.767C346.941 28.1497 346.754 28.6677 346.754 29.321V33.227H345.62V26.409H346.74V27.529C346.964 27.109 347.277 26.7917 347.678 26.577C348.08 26.353 348.537 26.241 349.05 26.241ZM359.289 29.993H354.305C354.343 30.7863 354.557 31.3883 354.949 31.799C355.341 32.2003 355.897 32.401 356.615 32.401C357.409 32.401 358.137 32.1303 358.799 31.589L359.177 32.415C358.879 32.695 358.496 32.919 358.029 33.087C357.563 33.2457 357.087 33.325 356.601 33.325C355.537 33.325 354.697 33.0123 354.081 32.387C353.475 31.7617 353.171 30.8983 353.171 29.797C353.171 29.097 353.307 28.481 353.577 27.949C353.848 27.4077 354.226 26.9877 354.711 26.689C355.206 26.3903 355.766 26.241 356.391 26.241C357.297 26.241 358.006 26.5397 358.519 27.137C359.033 27.725 359.289 28.537 359.289 29.573V29.993ZM356.405 27.123C355.808 27.123 355.327 27.3097 354.963 27.683C354.609 28.0563 354.399 28.5837 354.333 29.265H358.295C358.277 28.5743 358.104 28.047 357.777 27.683C357.451 27.3097 356.993 27.123 356.405 27.123ZM368 26.241C369.633 26.241 370.45 27.1417 370.45 28.943V33.227H369.316V29.013C369.316 28.3783 369.19 27.9163 368.938 27.627C368.695 27.3377 368.303 27.193 367.762 27.193C367.136 27.193 366.637 27.3843 366.264 27.767C365.89 28.1497 365.704 28.6677 365.704 29.321V33.227H364.57V26.409H365.69V27.529C365.914 27.109 366.226 26.7917 366.628 26.577C367.029 26.353 367.486 26.241 368 26.241ZM378.267 26.409V33.227H377.161V32.065C376.946 32.4757 376.643 32.7883 376.251 33.003C375.868 33.2177 375.434 33.325 374.949 33.325C374.137 33.325 373.525 33.101 373.115 32.653C372.704 32.1957 372.499 31.5237 372.499 30.637V26.409H373.633V30.609C373.633 31.2157 373.754 31.6637 373.997 31.953C374.239 32.233 374.622 32.373 375.145 32.373C375.742 32.373 376.223 32.1817 376.587 31.799C376.951 31.407 377.133 30.8937 377.133 30.259V26.409H378.267ZM387.962 26.241C389.474 26.241 390.23 27.1417 390.23 28.943V33.227H389.096V28.999C389.096 28.3737 388.984 27.9163 388.76 27.627C388.546 27.3377 388.196 27.193 387.71 27.193C387.141 27.193 386.693 27.3843 386.366 27.767C386.04 28.1497 385.876 28.6723 385.876 29.335V33.227H384.742V28.999C384.742 28.3643 384.63 27.907 384.406 27.627C384.182 27.3377 383.828 27.193 383.342 27.193C382.773 27.193 382.325 27.3843 381.998 27.767C381.672 28.1497 381.508 28.6723 381.508 29.335V33.227H380.374V26.409H381.494V27.487C381.7 27.0857 381.984 26.7777 382.348 26.563C382.712 26.3483 383.132 26.241 383.608 26.241C384.663 26.241 385.358 26.689 385.694 27.585C385.89 27.165 386.189 26.8383 386.59 26.605C386.992 26.3623 387.449 26.241 387.962 26.241ZM395.726 26.241C396.323 26.241 396.851 26.3857 397.308 26.675C397.765 26.9643 398.12 27.375 398.372 27.907C398.624 28.439 398.75 29.055 398.75 29.755C398.75 30.4643 398.624 31.0897 398.372 31.631C398.12 32.163 397.765 32.5783 397.308 32.877C396.851 33.1757 396.323 33.325 395.726 33.325C395.194 33.325 394.727 33.2083 394.326 32.975C393.934 32.7417 393.635 32.4103 393.43 31.981V33.227H392.296V23.357H393.43V27.585C393.635 27.1557 393.934 26.8243 394.326 26.591C394.727 26.3577 395.194 26.241 395.726 26.241ZM395.502 32.387C396.165 32.387 396.678 32.1583 397.042 31.701C397.406 31.2343 397.588 30.5857 397.588 29.755C397.588 28.943 397.406 28.313 397.042 27.865C396.678 27.417 396.165 27.193 395.502 27.193C394.839 27.193 394.326 27.417 393.962 27.865C393.607 28.313 393.43 28.9523 393.43 29.783C393.43 30.6137 393.607 31.2577 393.962 31.715C394.326 32.163 394.839 32.387 395.502 32.387ZM406.157 29.993H401.173C401.21 30.7863 401.425 31.3883 401.817 31.799C402.209 32.2003 402.764 32.401 403.483 32.401C404.276 32.401 405.004 32.1303 405.667 31.589L406.045 32.415C405.746 32.695 405.363 32.919 404.897 33.087C404.43 33.2457 403.954 33.325 403.469 33.325C402.405 33.325 401.565 33.0123 400.949 32.387C400.342 31.7617 400.039 30.8983 400.039 29.797C400.039 29.097 400.174 28.481 400.445 27.949C400.715 27.4077 401.093 26.9877 401.579 26.689C402.073 26.3903 402.633 26.241 403.259 26.241C404.164 26.241 404.873 26.5397 405.387 27.137C405.9 27.725 406.157 28.537 406.157 29.573V29.993ZM403.273 27.123C402.675 27.123 402.195 27.3097 401.831 27.683C401.476 28.0563 401.266 28.5837 401.201 29.265H405.163C405.144 28.5743 404.971 28.047 404.645 27.683C404.318 27.3097 403.861 27.123 403.273 27.123ZM411.691 27.221L410.949 27.291C410.249 27.3563 409.741 27.5757 409.423 27.949C409.115 28.3223 408.961 28.7843 408.961 29.335V33.227H407.827V26.409H408.933V27.599C409.316 26.8057 410.067 26.3623 411.187 26.269L411.593 26.241L411.691 27.221ZM414.201 26.409V27.851H412.773V26.409H414.201ZM414.201 31.799V33.227H412.773V31.799H414.201Z" fill="white"/>
<path d="M290.328 4.08919L293.955 4.08487C294.917 4.08373 295.662 4.31684 296.191 4.78421C296.729 5.25157 296.999 5.91425 297 6.77225C297.001 7.63025 296.733 8.2979 296.196 8.77521C295.659 9.25251 294.914 9.49173 293.961 9.49287L291.4 9.49592L291.405 13.2529L290.339 13.2542L290.328 4.08919ZM293.856 8.60899C295.251 8.60733 295.948 7.9955 295.947 6.7735C295.945 5.56884 295.247 4.96733 293.852 4.96899L291.395 4.97192L291.399 8.61192L293.856 8.60899ZM301.739 6.75361C303.255 6.7518 304.015 7.58723 304.017 9.2599L304.021 13.2379L302.968 13.2391L302.964 9.32615C302.963 8.73682 302.846 8.30796 302.611 8.03957C302.386 7.77117 302.021 7.63727 301.519 7.63787C300.938 7.63856 300.475 7.81678 300.128 8.17253C299.782 8.52827 299.609 9.00948 299.61 9.61614L299.614 13.2431L298.561 13.2444L298.551 4.0794L299.604 4.07815L299.608 7.92614C299.816 7.54456 300.101 7.25389 300.465 7.05412C300.838 6.85435 301.262 6.75417 301.739 6.75361ZM308.576 13.3235C307.978 13.3242 307.449 13.1905 306.99 12.9224C306.539 12.6542 306.187 12.2733 305.935 11.7796C305.692 11.2772 305.57 10.6967 305.569 10.038C305.569 9.37938 305.689 8.80291 305.931 8.30862C306.182 7.80565 306.533 7.41957 306.983 7.15036C307.442 6.88115 307.97 6.74619 308.568 6.74548C309.166 6.74477 309.695 6.87847 310.155 7.14659C310.615 7.41471 310.966 7.79996 311.209 8.30233C311.461 8.79603 311.588 9.37222 311.588 10.0309C311.589 10.6896 311.464 11.2704 311.213 11.7733C310.971 12.2676 310.621 12.6494 310.162 12.9186C309.703 13.1878 309.174 13.3228 308.576 13.3235ZM308.575 12.4525C309.199 12.4517 309.676 12.2475 310.004 11.8398C310.342 11.4234 310.51 10.8208 310.509 10.0322C310.508 9.26084 310.339 8.66737 310 8.25177C309.662 7.82751 309.185 7.61574 308.569 7.61648C307.954 7.61721 307.478 7.83011 307.14 8.25518C306.803 8.67158 306.634 9.26545 306.635 10.0368C306.636 10.8168 306.802 11.4146 307.131 11.8302C307.47 12.2458 307.951 12.4532 308.575 12.4525ZM316.338 6.73623C317.855 6.73442 318.614 7.56985 318.616 9.24252L318.621 13.2205L317.568 13.2218L317.563 9.30877C317.563 8.71944 317.445 8.29058 317.211 8.02219C316.985 7.75379 316.621 7.61989 316.118 7.62049C315.538 7.62118 315.074 7.7994 314.728 8.15515C314.382 8.51089 314.209 8.9921 314.21 9.59876L314.214 13.2258L313.161 13.227L313.154 6.89602L314.194 6.89478L314.195 7.93478C314.402 7.54453 314.692 7.24952 315.065 7.04974C315.437 6.8413 315.862 6.73679 316.338 6.73623ZM325.85 10.2089L321.222 10.2144C321.258 10.951 321.458 11.5098 321.822 11.8907C322.187 12.2629 322.702 12.4487 323.37 12.4479C324.106 12.447 324.782 12.1948 325.397 11.6914L325.749 12.458C325.472 12.7184 325.117 12.9268 324.684 13.0833C324.25 13.2311 323.809 13.3053 323.358 13.3059C322.37 13.3071 321.589 13.0176 321.017 12.4377C320.453 11.8577 320.17 11.0563 320.169 10.0337C320.168 9.38367 320.293 8.81152 320.544 8.31722C320.795 7.81426 321.145 7.42384 321.596 7.14597C322.055 6.86809 322.574 6.7288 323.155 6.72811C323.996 6.72711 324.655 7.00366 325.132 7.55776C325.609 8.10319 325.849 8.85691 325.85 9.81891L325.85 10.2089ZM323.169 7.5471C322.614 7.54776 322.168 7.72162 321.831 8.06869C321.502 8.41575 321.307 8.90565 321.247 9.53839L324.926 9.53401C324.908 8.89269 324.747 8.40322 324.444 8.06558C324.14 7.71927 323.715 7.54645 323.169 7.5471Z" fill="white" fill-opacity="0.5"/>
</svg>
