<svg width="33" height="32" viewBox="0 0 33 32" fill="none" xmlns="http://www.w3.org/2000/svg">
<path fill-rule="evenodd" clip-rule="evenodd" d="M3.25031 1.31196C3.25031 1.10566 3.42854 0.938416 3.6484 0.938416H32.3115C32.5314 0.938416 32.7096 1.10566 32.7096 1.31196V28.3317C32.7096 28.538 32.5314 28.7053 32.3115 28.7053C32.0916 28.7053 31.9134 28.538 31.9134 28.3317V1.68551H3.6484C3.42854 1.68551 3.25031 1.51826 3.25031 1.31196Z" fill="white" stroke="white" stroke-width="0.5" stroke-linecap="round" stroke-linejoin="round"/>
<path d="M3.6681 28.8806L3.7931 28.8806L3.7931 28.7556L3.79309 5.51687L5.41995 7.10825C5.62277 7.30665 5.95049 7.30665 6.15332 7.10825C6.35768 6.90834 6.35768 6.58306 6.15332 6.38316L3.63982 3.92447C3.437 3.72607 3.10927 3.72607 2.90645 3.92447L0.392956 6.38316C0.188593 6.58306 0.188594 6.90834 0.392955 7.10825C0.59578 7.30665 0.923504 7.30665 1.12633 7.10825L2.75318 5.51687L2.75318 28.7556L2.75318 28.8806L2.87818 28.8806L3.6681 28.8806Z" fill="white" stroke="white" stroke-width="0.25"/>
<path d="M2.7522 29.1412V29.2662H2.8772L26.7555 29.2662L25.1272 30.8507C24.9217 31.0507 24.9217 31.3763 25.1272 31.5763C25.3307 31.7744 25.6594 31.7744 25.863 31.5763L28.3896 29.1176C28.5951 28.9176 28.5951 28.592 28.3896 28.3921L25.863 25.9334C25.6594 25.7353 25.3307 25.7353 25.1272 25.9334C24.9217 26.1333 24.9217 26.459 25.1272 26.6589L26.7555 28.2435L2.8772 28.2435H2.7522V28.3685V29.1412Z" fill="white" stroke="white" stroke-width="0.25"/>
<path fill-rule="evenodd" clip-rule="evenodd" d="M14.1624 1.05157C14.3167 1.20245 14.3167 1.44707 14.1624 1.59795L9.42295 6.23409C9.26871 6.38497 9.01864 6.38497 8.8644 6.23409C8.71016 6.08322 8.71016 5.83859 8.8644 5.68772L13.6039 1.05157C13.7581 0.900696 14.0082 0.900696 14.1624 1.05157Z" fill="white" stroke="white" stroke-width="0.5" stroke-linecap="round" stroke-linejoin="round"/>
<path fill-rule="evenodd" clip-rule="evenodd" d="M32.4623 19.4677C32.6165 19.6186 32.6165 19.8632 32.4623 20.0141L28.1177 24.2639C27.9635 24.4148 27.7134 24.4148 27.5592 24.2639C27.4049 24.113 27.4049 23.8684 27.5592 23.7175L31.9037 19.4677C32.0579 19.3168 32.308 19.3168 32.4623 19.4677Z" fill="white" stroke="white" stroke-width="0.5" stroke-linecap="round" stroke-linejoin="round"/>
<path fill-rule="evenodd" clip-rule="evenodd" d="M20.0851 1.04984C20.2403 1.19975 20.2419 1.44437 20.0886 1.5962L9.81975 11.77C9.66649 11.9218 9.41642 11.9234 9.2612 11.7734C9.10598 11.6235 9.10439 11.3789 9.25765 11.2271L19.5265 1.05332C19.6798 0.901484 19.9299 0.899926 20.0851 1.04984Z" fill="white" stroke="white" stroke-width="0.5" stroke-linecap="round" stroke-linejoin="round"/>
<path fill-rule="evenodd" clip-rule="evenodd" d="M32.5938 13.0281C32.7481 13.179 32.7481 13.4236 32.5938 13.5744L22.5882 23.3619C22.434 23.5127 22.1839 23.5127 22.0297 23.3619C21.8754 23.211 21.8754 22.9664 22.0297 22.8155L32.0353 13.0281C32.1895 12.8772 32.4396 12.8772 32.5938 13.0281Z" fill="white" stroke="white" stroke-width="0.5" stroke-linecap="round" stroke-linejoin="round"/>
<path fill-rule="evenodd" clip-rule="evenodd" d="M26.4084 1.18336C26.5614 1.33545 26.5594 1.58006 26.4039 1.72972L9.94736 17.5699C9.79188 17.7195 9.54182 17.7176 9.38883 17.5655C9.23584 17.4134 9.23785 17.1688 9.39333 17.0191L25.8499 1.17896C26.0054 1.0293 26.2554 1.03127 26.4084 1.18336Z" fill="white" stroke="white" stroke-width="0.5" stroke-linecap="round" stroke-linejoin="round"/>
<path fill-rule="evenodd" clip-rule="evenodd" d="M32.5939 6.97558C32.7482 7.12646 32.7482 7.37108 32.5939 7.52196L16.0057 23.7485C15.8515 23.8993 15.6014 23.8993 15.4472 23.7485C15.2929 23.5976 15.2929 23.353 15.4472 23.2021L32.0354 6.97558C32.1896 6.82471 32.4397 6.82471 32.5939 6.97558Z" fill="white" stroke="white" stroke-width="0.5" stroke-linecap="round" stroke-linejoin="round"/>
<path fill-rule="evenodd" clip-rule="evenodd" d="M32.3306 1.18115C32.4849 1.33203 32.4849 1.57665 32.3306 1.72753L9.68638 23.878C9.53214 24.0289 9.28207 24.0289 9.12783 23.878C8.97359 23.7271 8.97359 23.4825 9.12783 23.3316L31.7721 1.18115C31.9263 1.03027 32.1764 1.03027 32.3306 1.18115Z" fill="white" stroke="white" stroke-width="0.5" stroke-linecap="round" stroke-linejoin="round"/>
</svg>
