<svg width="34" height="32" viewBox="0 0 34 32" fill="none" xmlns="http://www.w3.org/2000/svg">
<path d="M24.6002 3.09011C24.3374 1.86418 23.1962 0.938416 21.8313 0.938416C21.5193 0.938416 21.2661 1.17887 21.2661 1.47634C21.2661 1.77381 21.5193 2.01427 21.8313 2.01427C22.7661 2.01427 23.5269 2.73831 23.5269 3.62804C23.5269 4.51777 22.7661 5.24181 21.8313 5.24181C21.5193 5.24181 21.2661 5.48227 21.2661 5.77974C21.2661 6.07721 21.5193 6.31766 21.8313 6.31766C23.1957 6.31766 24.3374 5.39189 24.6002 4.16596H32.0048V9.00729H1.48442V4.16596H9.3971H11.0927C11.4047 4.16596 11.6579 3.92551 11.6579 3.62804C11.6579 3.33057 11.4047 3.09011 11.0927 3.09011H10.0663C10.3003 2.46505 10.922 2.01427 11.6579 2.01427C12.5927 2.01427 13.3534 2.73831 13.3534 3.62804C13.3534 4.51777 12.5927 5.24181 11.6579 5.24181C11.3459 5.24181 11.0927 5.48227 11.0927 5.77974C11.0927 6.07721 11.3459 6.31766 11.6579 6.31766C13.2161 6.31766 14.4838 5.1111 14.4838 3.62804C14.4838 2.14498 13.2161 0.938416 11.6579 0.938416C10.2935 0.938416 9.1518 1.86418 8.88899 3.09011H0.354034V10.0831V31.6001H33.1351V10.0831V3.09011H24.6002ZM32.0048 30.5243H1.48442V10.0831H32.0048V30.5243Z" fill="white"/>
<path d="M15.049 2.01427C15.9839 2.01427 16.7446 2.73831 16.7446 3.62804C16.7446 4.51777 15.9839 5.24181 15.049 5.24181C14.7371 5.24181 14.4839 5.48227 14.4839 5.77974C14.4839 6.07721 14.7371 6.31766 15.049 6.31766C16.6073 6.31766 17.875 5.1111 17.875 3.62804C17.875 2.14498 16.6073 0.938416 15.049 0.938416C14.7371 0.938416 14.4839 1.17887 14.4839 1.47634C14.4839 1.77381 14.7371 2.01427 15.049 2.01427Z" fill="white"/>
<path d="M18.4402 2.01427C19.375 2.01427 20.1358 2.73831 20.1358 3.62804C20.1358 4.51777 19.375 5.24181 18.4402 5.24181C18.1282 5.24181 17.875 5.48227 17.875 5.77974C17.875 6.07721 18.1282 6.31766 18.4402 6.31766C19.9984 6.31766 21.2662 5.1111 21.2662 3.62804C21.2662 2.14498 19.9984 0.938416 18.4402 0.938416C18.1282 0.938416 17.875 1.17887 17.875 1.47634C17.875 1.77381 18.1282 2.01427 18.4402 2.01427Z" fill="white"/>
<path d="M5.4408 14.3861H17.875C18.187 14.3861 18.4402 14.1456 18.4402 13.8482C18.4402 13.5507 18.187 13.3102 17.875 13.3102H5.4408C5.12882 13.3102 4.87561 13.5507 4.87561 13.8482C4.87561 14.1456 5.12882 14.3861 5.4408 14.3861Z" fill="white"/>
<path d="M28.0485 21.9174H19.5706C19.2586 21.9174 19.0054 22.1579 19.0054 22.4553C19.0054 22.7528 19.2586 22.9933 19.5706 22.9933H28.0485C28.3605 22.9933 28.6137 22.7528 28.6137 22.4553C28.6137 22.1579 28.3605 21.9174 28.0485 21.9174Z" fill="white"/>
<path d="M5.4408 18.6899H11.0927C11.4047 18.6899 11.6579 18.4494 11.6579 18.1519C11.6579 17.8545 11.4047 17.614 11.0927 17.614H5.4408C5.12882 17.614 4.87561 17.8545 4.87561 18.1519C4.87561 18.4494 5.12882 18.6899 5.4408 18.6899Z" fill="white"/>
<path d="M28.0485 26.2207H22.3966C22.0846 26.2207 21.8314 26.4612 21.8314 26.7586C21.8314 27.0561 22.0846 27.2966 22.3966 27.2966H28.0485C28.3605 27.2966 28.6137 27.0561 28.6137 26.7586C28.6137 26.4612 28.3605 26.2207 28.0485 26.2207Z" fill="white"/>
<path d="M16.1794 18.1519C16.1794 18.4494 16.4326 18.6899 16.7446 18.6899H25.2225C25.5345 18.6899 25.7877 18.4494 25.7877 18.1519C25.7877 17.8545 25.5345 17.614 25.2225 17.614H16.7446C16.4326 17.614 16.1794 17.8545 16.1794 18.1519Z" fill="white"/>
<path d="M14.32 18.5342C14.4217 18.432 14.4839 18.2921 14.4839 18.1522C14.4839 18.0118 14.4217 17.872 14.32 17.7703C14.1109 17.5713 13.7265 17.5713 13.5174 17.7703C13.4157 17.872 13.3535 18.0118 13.3535 18.1522C13.3535 18.2921 13.4157 18.432 13.5174 18.5342C13.6248 18.6358 13.7718 18.6902 13.9187 18.6902C14.0657 18.6902 14.2126 18.6358 14.32 18.5342Z" fill="white"/>
<path d="M7.70154 22.4553C7.70154 22.7528 7.95474 22.9933 8.26673 22.9933H16.7446C17.0566 22.9933 17.3098 22.7528 17.3098 22.4553C17.3098 22.1579 17.0566 21.9174 16.7446 21.9174H8.26673C7.95474 21.9174 7.70154 22.1579 7.70154 22.4553Z" fill="white"/>
<path d="M5.4408 22.9937C5.58775 22.9937 5.7347 22.9345 5.84209 22.8377C5.94382 22.7355 6.00599 22.5956 6.00599 22.4558C6.00599 22.3154 5.94382 22.1755 5.84209 22.0792C5.63297 21.8748 5.24864 21.8748 5.03952 22.0738C4.93778 22.1755 4.87561 22.3154 4.87561 22.4558C4.87561 22.5956 4.93778 22.7355 5.03952 22.8377C5.1469 22.9345 5.2882 22.9937 5.4408 22.9937Z" fill="white"/>
<path d="M28.0485 18.6902C28.1954 18.6902 28.3424 18.6358 28.4498 18.5342C28.5571 18.432 28.6137 18.2921 28.6137 18.1522C28.6137 18.0118 28.5571 17.872 28.4498 17.7703C28.235 17.5713 27.8563 17.5713 27.6472 17.7703C27.5454 17.872 27.4833 18.0118 27.4833 18.1522C27.4833 18.2921 27.5454 18.432 27.6472 18.5342C27.7546 18.6358 27.9015 18.6902 28.0485 18.6902Z" fill="white"/>
<path d="M19.5706 26.2207H5.4408C5.12882 26.2207 4.87561 26.4612 4.87561 26.7586C4.87561 27.0561 5.12882 27.2966 5.4408 27.2966H19.5706C19.8826 27.2966 20.1358 27.0561 20.1358 26.7586C20.1358 26.4612 19.8826 26.2207 19.5706 26.2207Z" fill="white"/>
</svg>
