<svg width="461" height="112" viewBox="0 0 461 112" fill="none" xmlns="http://www.w3.org/2000/svg">
<g filter="url(#filter0_d)">
<path d="M118.566 40.5V27.81H120.042V33.426H127.656V27.81H129.132V40.5H127.656V34.704H120.042V40.5H118.566ZM136.003 40.662C134.623 40.662 133.531 40.26 132.727 39.456C131.923 38.64 131.521 37.536 131.521 36.144C131.521 35.244 131.701 34.452 132.061 33.768C132.421 33.072 132.913 32.538 133.537 32.166C134.173 31.782 134.905 31.59 135.733 31.59C136.921 31.59 137.851 31.974 138.523 32.742C139.195 33.498 139.531 34.542 139.531 35.874V36.432H132.943C132.991 37.428 133.279 38.19 133.807 38.718C134.335 39.234 135.067 39.492 136.003 39.492C136.531 39.492 137.035 39.414 137.515 39.258C137.995 39.09 138.451 38.82 138.883 38.448L139.387 39.474C138.991 39.846 138.487 40.14 137.875 40.356C137.263 40.56 136.639 40.662 136.003 40.662ZM135.769 32.67C134.941 32.67 134.287 32.928 133.807 33.444C133.327 33.96 133.045 34.638 132.961 35.478H138.271C138.235 34.59 138.001 33.9 137.569 33.408C137.149 32.916 136.549 32.67 135.769 32.67ZM144.323 40.662C143.435 40.662 142.763 40.404 142.307 39.888C141.863 39.36 141.641 38.598 141.641 37.602V27.81H143.099V37.494C143.099 38.778 143.609 39.42 144.629 39.42C144.929 39.42 145.199 39.384 145.439 39.312L145.403 40.536C145.031 40.62 144.671 40.662 144.323 40.662ZM146.968 43.74V31.752H148.39V33.318C148.654 32.778 149.044 32.358 149.56 32.058C150.088 31.746 150.7 31.59 151.396 31.59C152.176 31.59 152.854 31.776 153.43 32.148C154.018 32.508 154.468 33.03 154.78 33.714C155.104 34.386 155.266 35.19 155.266 36.126C155.266 37.05 155.104 37.854 154.78 38.538C154.468 39.21 154.018 39.732 153.43 40.104C152.854 40.476 152.176 40.662 151.396 40.662C150.724 40.662 150.124 40.512 149.596 40.212C149.068 39.912 148.678 39.498 148.426 38.97V43.74H146.968ZM151.09 39.492C151.906 39.492 152.56 39.204 153.052 38.628C153.544 38.04 153.79 37.206 153.79 36.126C153.79 35.034 153.544 34.2 153.052 33.624C152.56 33.048 151.906 32.76 151.09 32.76C150.274 32.76 149.62 33.048 149.128 33.624C148.636 34.2 148.39 35.034 148.39 36.126C148.39 37.206 148.636 38.04 149.128 38.628C149.62 39.204 150.274 39.492 151.09 39.492ZM165.037 40.662C164.353 40.662 163.705 40.566 163.093 40.374C162.481 40.182 161.977 39.912 161.581 39.564L162.049 38.538C162.481 38.886 162.955 39.144 163.471 39.312C163.999 39.468 164.533 39.546 165.073 39.546C165.757 39.546 166.273 39.42 166.621 39.168C166.969 38.916 167.143 38.574 167.143 38.142C167.143 37.806 167.029 37.542 166.801 37.35C166.573 37.146 166.213 36.99 165.721 36.882L164.083 36.522C162.595 36.198 161.851 35.43 161.851 34.218C161.851 33.426 162.163 32.79 162.787 32.31C163.423 31.83 164.251 31.59 165.271 31.59C165.871 31.59 166.441 31.686 166.981 31.878C167.533 32.058 167.989 32.328 168.349 32.688L167.863 33.714C167.515 33.39 167.107 33.144 166.639 32.976C166.183 32.796 165.727 32.706 165.271 32.706C164.599 32.706 164.089 32.838 163.741 33.102C163.393 33.366 163.219 33.714 163.219 34.146C163.219 34.818 163.663 35.25 164.551 35.442L166.189 35.784C166.957 35.952 167.539 36.222 167.935 36.594C168.331 36.954 168.529 37.446 168.529 38.07C168.529 38.874 168.211 39.51 167.575 39.978C166.939 40.434 166.093 40.662 165.037 40.662ZM173.505 40.662C172.905 40.662 172.365 40.548 171.885 40.32C171.417 40.08 171.045 39.756 170.769 39.348C170.493 38.94 170.355 38.484 170.355 37.98C170.355 37.344 170.517 36.84 170.841 36.468C171.177 36.096 171.723 35.832 172.479 35.676C173.247 35.508 174.291 35.424 175.611 35.424H176.187V34.866C176.187 34.122 176.031 33.588 175.719 33.264C175.419 32.928 174.933 32.76 174.261 32.76C173.733 32.76 173.223 32.838 172.731 32.994C172.239 33.138 171.735 33.378 171.219 33.714L170.715 32.652C171.171 32.328 171.723 32.07 172.371 31.878C173.031 31.686 173.661 31.59 174.261 31.59C175.389 31.59 176.223 31.866 176.763 32.418C177.315 32.97 177.591 33.828 177.591 34.992V40.5H176.223V38.988C175.995 39.504 175.641 39.912 175.161 40.212C174.693 40.512 174.141 40.662 173.505 40.662ZM173.739 39.564C174.459 39.564 175.047 39.318 175.503 38.826C175.959 38.322 176.187 37.686 176.187 36.918V36.378H175.629C174.657 36.378 173.889 36.426 173.325 36.522C172.773 36.606 172.383 36.762 172.155 36.99C171.939 37.206 171.831 37.506 171.831 37.89C171.831 38.382 171.999 38.784 172.335 39.096C172.683 39.408 173.151 39.564 173.739 39.564ZM182.782 40.5L179.02 31.752H180.604L183.502 38.844L186.436 31.752H187.93L184.15 40.5H182.782ZM193.29 40.662C191.91 40.662 190.818 40.26 190.014 39.456C189.21 38.64 188.808 37.536 188.808 36.144C188.808 35.244 188.988 34.452 189.348 33.768C189.708 33.072 190.2 32.538 190.824 32.166C191.46 31.782 192.192 31.59 193.02 31.59C194.208 31.59 195.138 31.974 195.81 32.742C196.482 33.498 196.818 34.542 196.818 35.874V36.432H190.23C190.278 37.428 190.566 38.19 191.094 38.718C191.622 39.234 192.354 39.492 193.29 39.492C193.818 39.492 194.322 39.414 194.802 39.258C195.282 39.09 195.738 38.82 196.17 38.448L196.674 39.474C196.278 39.846 195.774 40.14 195.162 40.356C194.55 40.56 193.926 40.662 193.29 40.662ZM193.056 32.67C192.228 32.67 191.574 32.928 191.094 33.444C190.614 33.96 190.332 34.638 190.248 35.478H195.558C195.522 34.59 195.288 33.9 194.856 33.408C194.436 32.916 193.836 32.67 193.056 32.67ZM204.416 40.5V39.24H207.314V29.592L205.028 31.032L204.398 29.934L207.728 27.81H208.79V39.24H211.508V40.5H204.416ZM218.377 40.662C216.925 40.662 215.821 40.104 215.065 38.988C214.309 37.872 213.931 36.258 213.931 34.146C213.931 32.022 214.309 30.408 215.065 29.304C215.821 28.2 216.925 27.648 218.377 27.648C219.841 27.648 220.945 28.2 221.689 29.304C222.445 30.396 222.823 32.004 222.823 34.128C222.823 36.252 222.439 37.872 221.671 38.988C220.915 40.104 219.817 40.662 218.377 40.662ZM218.377 39.384C219.385 39.384 220.129 38.958 220.609 38.106C221.101 37.254 221.347 35.928 221.347 34.128C221.347 32.328 221.107 31.014 220.627 30.186C220.147 29.346 219.397 28.926 218.377 28.926C217.369 28.926 216.619 29.346 216.127 30.186C215.647 31.026 215.407 32.34 215.407 34.128C215.407 35.928 215.647 37.254 216.127 38.106C216.619 38.958 217.369 39.384 218.377 39.384ZM229.689 36.306V35.1H234.729V36.306H229.689ZM242.265 40.5V39.384L246.603 34.704C247.215 34.032 247.653 33.42 247.917 32.868C248.193 32.316 248.331 31.752 248.331 31.176C248.331 29.7 247.473 28.962 245.757 28.962C244.473 28.962 243.339 29.442 242.355 30.402L241.797 29.25C242.265 28.77 242.859 28.386 243.579 28.098C244.311 27.798 245.079 27.648 245.883 27.648C247.155 27.648 248.127 27.948 248.799 28.548C249.483 29.136 249.825 29.976 249.825 31.068C249.825 31.824 249.639 32.568 249.267 33.3C248.895 34.02 248.325 34.788 247.557 35.604L244.155 39.24H250.347V40.5H242.265ZM256.838 40.662C255.386 40.662 254.282 40.104 253.526 38.988C252.77 37.872 252.392 36.258 252.392 34.146C252.392 32.022 252.77 30.408 253.526 29.304C254.282 28.2 255.386 27.648 256.838 27.648C258.302 27.648 259.406 28.2 260.15 29.304C260.906 30.396 261.284 32.004 261.284 34.128C261.284 36.252 260.9 37.872 260.132 38.988C259.376 40.104 258.278 40.662 256.838 40.662ZM256.838 39.384C257.846 39.384 258.59 38.958 259.07 38.106C259.562 37.254 259.808 35.928 259.808 34.128C259.808 32.328 259.568 31.014 259.088 30.186C258.608 29.346 257.858 28.926 256.838 28.926C255.83 28.926 255.08 29.346 254.588 30.186C254.108 31.026 253.868 32.34 253.868 34.128C253.868 35.928 254.108 37.254 254.588 38.106C255.08 38.958 255.83 39.384 256.838 39.384ZM267.378 40.95L266.352 40.356L273.822 27.36L274.83 27.954L267.378 40.95ZM266.298 35.424C265.338 35.424 264.588 35.082 264.048 34.398C263.508 33.714 263.238 32.76 263.238 31.536C263.238 30.312 263.508 29.364 264.048 28.692C264.588 28.008 265.338 27.666 266.298 27.666C267.246 27.666 267.99 28.008 268.53 28.692C269.082 29.364 269.358 30.312 269.358 31.536C269.358 32.76 269.082 33.714 268.53 34.398C267.99 35.082 267.246 35.424 266.298 35.424ZM266.298 34.362C266.85 34.362 267.288 34.128 267.612 33.66C267.936 33.18 268.098 32.472 268.098 31.536C268.098 30.6 267.936 29.898 267.612 29.43C267.288 28.962 266.85 28.728 266.298 28.728C265.734 28.728 265.29 28.962 264.966 29.43C264.654 29.898 264.498 30.6 264.498 31.536C264.498 32.472 264.654 33.18 264.966 33.66C265.29 34.128 265.734 34.362 266.298 34.362ZM274.902 40.662C273.954 40.662 273.204 40.32 272.652 39.636C272.112 38.952 271.842 37.998 271.842 36.774C271.842 35.562 272.112 34.614 272.652 33.93C273.204 33.246 273.954 32.904 274.902 32.904C275.862 32.904 276.612 33.246 277.152 33.93C277.692 34.614 277.962 35.562 277.962 36.774C277.962 37.998 277.692 38.952 277.152 39.636C276.612 40.32 275.862 40.662 274.902 40.662ZM274.902 39.6C275.466 39.6 275.904 39.366 276.216 38.898C276.54 38.418 276.702 37.71 276.702 36.774C276.702 35.838 276.54 35.136 276.216 34.668C275.904 34.2 275.466 33.966 274.902 33.966C274.35 33.966 273.912 34.2 273.588 34.668C273.276 35.136 273.12 35.838 273.12 36.774C273.12 37.722 273.276 38.43 273.588 38.898C273.912 39.366 274.35 39.6 274.902 39.6ZM288.592 40.662C287.74 40.662 287.002 40.476 286.378 40.104C285.754 39.732 285.268 39.21 284.92 38.538C284.584 37.854 284.416 37.05 284.416 36.126C284.416 35.202 284.584 34.404 284.92 33.732C285.268 33.048 285.754 32.52 286.378 32.148C287.002 31.776 287.74 31.59 288.592 31.59C289.432 31.59 290.164 31.776 290.788 32.148C291.424 32.52 291.91 33.048 292.246 33.732C292.594 34.404 292.768 35.202 292.768 36.126C292.768 37.05 292.594 37.854 292.246 38.538C291.91 39.21 291.424 39.732 290.788 40.104C290.164 40.476 289.432 40.662 288.592 40.662ZM288.592 39.492C289.408 39.492 290.062 39.204 290.554 38.628C291.046 38.04 291.292 37.206 291.292 36.126C291.292 35.034 291.046 34.2 290.554 33.624C290.062 33.048 289.408 32.76 288.592 32.76C287.764 32.76 287.104 33.048 286.612 33.624C286.132 34.2 285.892 35.034 285.892 36.126C285.892 37.206 286.132 38.04 286.612 38.628C287.104 39.204 287.764 39.492 288.592 39.492ZM295.338 40.5V32.886H293.61V31.752H295.338V31.446C295.338 30.282 295.626 29.4 296.202 28.8C296.79 28.2 297.69 27.864 298.902 27.792L299.604 27.756L299.73 28.872L298.902 28.926C298.158 28.986 297.618 29.208 297.282 29.592C296.958 29.976 296.796 30.534 296.796 31.266V31.752H299.316V32.886H296.796V40.5H295.338ZM308.997 40.662C307.965 40.662 307.191 40.392 306.675 39.852C306.159 39.3 305.901 38.508 305.901 37.476V32.886H304.191V31.752H305.901V29.07H307.359V31.752H310.131V32.886H307.359V37.332C307.359 38.016 307.503 38.538 307.791 38.898C308.079 39.246 308.547 39.42 309.195 39.42C309.387 39.42 309.579 39.396 309.771 39.348C309.963 39.3 310.137 39.252 310.293 39.204L310.545 40.32C310.389 40.404 310.161 40.482 309.861 40.554C309.561 40.626 309.273 40.662 308.997 40.662ZM311.78 40.5V27.81H313.238V33.192C313.526 32.664 313.928 32.268 314.444 32.004C314.972 31.728 315.56 31.59 316.208 31.59C318.284 31.59 319.322 32.742 319.322 35.046V40.5H317.864V35.136C317.864 34.32 317.702 33.726 317.378 33.354C317.066 32.97 316.562 32.778 315.866 32.778C315.062 32.778 314.42 33.03 313.94 33.534C313.472 34.026 313.238 34.686 313.238 35.514V40.5H311.78ZM325.953 40.662C324.573 40.662 323.481 40.26 322.677 39.456C321.873 38.64 321.471 37.536 321.471 36.144C321.471 35.244 321.651 34.452 322.011 33.768C322.371 33.072 322.863 32.538 323.487 32.166C324.123 31.782 324.855 31.59 325.683 31.59C326.871 31.59 327.801 31.974 328.473 32.742C329.145 33.498 329.481 34.542 329.481 35.874V36.432H322.893C322.941 37.428 323.229 38.19 323.757 38.718C324.285 39.234 325.017 39.492 325.953 39.492C326.481 39.492 326.985 39.414 327.465 39.258C327.945 39.09 328.401 38.82 328.833 38.448L329.337 39.474C328.941 39.846 328.437 40.14 327.825 40.356C327.213 40.56 326.589 40.662 325.953 40.662ZM325.719 32.67C324.891 32.67 324.237 32.928 323.757 33.444C323.277 33.96 322.995 34.638 322.911 35.478H328.221C328.185 34.59 327.951 33.9 327.519 33.408C327.099 32.916 326.499 32.67 325.719 32.67ZM122.076 66.662C121.2 66.662 120.444 66.476 119.808 66.104C119.172 65.72 118.68 65.186 118.332 64.502C117.996 63.806 117.828 62.996 117.828 62.072C117.828 60.68 118.206 59.588 118.962 58.796C119.718 57.992 120.756 57.59 122.076 57.59C122.616 57.59 123.15 57.686 123.678 57.878C124.206 58.07 124.644 58.34 124.992 58.688L124.488 59.75C124.14 59.414 123.756 59.168 123.336 59.012C122.928 58.856 122.538 58.778 122.166 58.778C121.254 58.778 120.552 59.066 120.06 59.642C119.568 60.206 119.322 61.022 119.322 62.09C119.322 63.134 119.568 63.962 120.06 64.574C120.552 65.174 121.254 65.474 122.166 65.474C122.538 65.474 122.928 65.396 123.336 65.24C123.756 65.084 124.14 64.832 124.488 64.484L124.992 65.546C124.644 65.894 124.2 66.17 123.66 66.374C123.132 66.566 122.604 66.662 122.076 66.662ZM130.16 66.662C129.308 66.662 128.57 66.476 127.946 66.104C127.322 65.732 126.836 65.21 126.488 64.538C126.152 63.854 125.984 63.05 125.984 62.126C125.984 61.202 126.152 60.404 126.488 59.732C126.836 59.048 127.322 58.52 127.946 58.148C128.57 57.776 129.308 57.59 130.16 57.59C131 57.59 131.732 57.776 132.356 58.148C132.992 58.52 133.478 59.048 133.814 59.732C134.162 60.404 134.336 61.202 134.336 62.126C134.336 63.05 134.162 63.854 133.814 64.538C133.478 65.21 132.992 65.732 132.356 66.104C131.732 66.476 131 66.662 130.16 66.662ZM130.16 65.492C130.976 65.492 131.63 65.204 132.122 64.628C132.614 64.04 132.86 63.206 132.86 62.126C132.86 61.034 132.614 60.2 132.122 59.624C131.63 59.048 130.976 58.76 130.16 58.76C129.332 58.76 128.672 59.048 128.18 59.624C127.7 60.2 127.46 61.034 127.46 62.126C127.46 63.206 127.7 64.04 128.18 64.628C128.672 65.204 129.332 65.492 130.16 65.492ZM139.478 66.662C138.794 66.662 138.146 66.566 137.534 66.374C136.922 66.182 136.418 65.912 136.022 65.564L136.49 64.538C136.922 64.886 137.396 65.144 137.912 65.312C138.44 65.468 138.974 65.546 139.514 65.546C140.198 65.546 140.714 65.42 141.062 65.168C141.41 64.916 141.584 64.574 141.584 64.142C141.584 63.806 141.47 63.542 141.242 63.35C141.014 63.146 140.654 62.99 140.162 62.882L138.524 62.522C137.036 62.198 136.292 61.43 136.292 60.218C136.292 59.426 136.604 58.79 137.228 58.31C137.864 57.83 138.692 57.59 139.712 57.59C140.312 57.59 140.882 57.686 141.422 57.878C141.974 58.058 142.43 58.328 142.79 58.688L142.304 59.714C141.956 59.39 141.548 59.144 141.08 58.976C140.624 58.796 140.168 58.706 139.712 58.706C139.04 58.706 138.53 58.838 138.182 59.102C137.834 59.366 137.66 59.714 137.66 60.146C137.66 60.818 138.104 61.25 138.992 61.442L140.63 61.784C141.398 61.952 141.98 62.222 142.376 62.594C142.772 62.954 142.97 63.446 142.97 64.07C142.97 64.874 142.652 65.51 142.016 65.978C141.38 66.434 140.534 66.662 139.478 66.662ZM148.614 66.662C147.582 66.662 146.808 66.392 146.292 65.852C145.776 65.3 145.518 64.508 145.518 63.476V58.886H143.808V57.752H145.518V55.07H146.976V57.752H149.748V58.886H146.976V63.332C146.976 64.016 147.12 64.538 147.408 64.898C147.696 65.246 148.164 65.42 148.812 65.42C149.004 65.42 149.196 65.396 149.388 65.348C149.58 65.3 149.754 65.252 149.91 65.204L150.162 66.32C150.006 66.404 149.778 66.482 149.478 66.554C149.178 66.626 148.89 66.662 148.614 66.662ZM159.656 66.662C158.804 66.662 158.066 66.476 157.442 66.104C156.818 65.732 156.332 65.21 155.984 64.538C155.648 63.854 155.48 63.05 155.48 62.126C155.48 61.202 155.648 60.404 155.984 59.732C156.332 59.048 156.818 58.52 157.442 58.148C158.066 57.776 158.804 57.59 159.656 57.59C160.496 57.59 161.228 57.776 161.852 58.148C162.488 58.52 162.974 59.048 163.31 59.732C163.658 60.404 163.832 61.202 163.832 62.126C163.832 63.05 163.658 63.854 163.31 64.538C162.974 65.21 162.488 65.732 161.852 66.104C161.228 66.476 160.496 66.662 159.656 66.662ZM159.656 65.492C160.472 65.492 161.126 65.204 161.618 64.628C162.11 64.04 162.356 63.206 162.356 62.126C162.356 61.034 162.11 60.2 161.618 59.624C161.126 59.048 160.472 58.76 159.656 58.76C158.828 58.76 158.168 59.048 157.676 59.624C157.196 60.2 156.956 61.034 156.956 62.126C156.956 63.206 157.196 64.04 157.676 64.628C158.168 65.204 158.828 65.492 159.656 65.492ZM166.402 66.5V58.886H164.674V57.752H166.402V57.446C166.402 56.282 166.69 55.4 167.266 54.8C167.854 54.2 168.754 53.864 169.966 53.792L170.668 53.756L170.794 54.872L169.966 54.926C169.222 54.986 168.682 55.208 168.346 55.592C168.022 55.976 167.86 56.534 167.86 57.266V57.752H170.38V58.886H167.86V66.5H166.402ZM176.588 66.5V57.752H178.01V59.228C178.274 58.7 178.64 58.298 179.108 58.022C179.576 57.734 180.122 57.59 180.746 57.59C182.114 57.59 182.99 58.184 183.374 59.372C183.638 58.82 184.028 58.388 184.544 58.076C185.06 57.752 185.654 57.59 186.326 57.59C188.27 57.59 189.242 58.742 189.242 61.046V66.5H187.784V61.118C187.784 60.314 187.64 59.726 187.352 59.354C187.076 58.97 186.614 58.778 185.966 58.778C185.258 58.778 184.694 59.03 184.274 59.534C183.854 60.038 183.644 60.71 183.644 61.55V66.5H182.186V61.118C182.186 60.314 182.042 59.726 181.754 59.354C181.478 58.97 181.016 58.778 180.368 58.778C179.648 58.778 179.078 59.03 178.658 59.534C178.25 60.038 178.046 60.71 178.046 61.55V66.5H176.588ZM194.722 66.662C194.122 66.662 193.582 66.548 193.102 66.32C192.634 66.08 192.262 65.756 191.986 65.348C191.71 64.94 191.572 64.484 191.572 63.98C191.572 63.344 191.734 62.84 192.058 62.468C192.394 62.096 192.94 61.832 193.696 61.676C194.464 61.508 195.508 61.424 196.828 61.424H197.404V60.866C197.404 60.122 197.248 59.588 196.936 59.264C196.636 58.928 196.15 58.76 195.478 58.76C194.95 58.76 194.44 58.838 193.948 58.994C193.456 59.138 192.952 59.378 192.436 59.714L191.932 58.652C192.388 58.328 192.94 58.07 193.588 57.878C194.248 57.686 194.878 57.59 195.478 57.59C196.606 57.59 197.44 57.866 197.98 58.418C198.532 58.97 198.808 59.828 198.808 60.992V66.5H197.44V64.988C197.212 65.504 196.858 65.912 196.378 66.212C195.91 66.512 195.358 66.662 194.722 66.662ZM194.956 65.564C195.676 65.564 196.264 65.318 196.72 64.826C197.176 64.322 197.404 63.686 197.404 62.918V62.378H196.846C195.874 62.378 195.106 62.426 194.542 62.522C193.99 62.606 193.6 62.762 193.372 62.99C193.156 63.206 193.048 63.506 193.048 63.89C193.048 64.382 193.216 64.784 193.552 65.096C193.9 65.408 194.368 65.564 194.956 65.564ZM205.023 66.662C203.991 66.662 203.217 66.392 202.701 65.852C202.185 65.3 201.927 64.508 201.927 63.476V58.886H200.217V57.752H201.927V55.07H203.385V57.752H206.157V58.886H203.385V63.332C203.385 64.016 203.529 64.538 203.817 64.898C204.105 65.246 204.573 65.42 205.221 65.42C205.413 65.42 205.605 65.396 205.797 65.348C205.989 65.3 206.163 65.252 206.319 65.204L206.571 66.32C206.415 66.404 206.187 66.482 205.887 66.554C205.587 66.626 205.299 66.662 205.023 66.662ZM211.66 66.662C210.28 66.662 209.188 66.26 208.384 65.456C207.58 64.64 207.178 63.536 207.178 62.144C207.178 61.244 207.358 60.452 207.718 59.768C208.078 59.072 208.57 58.538 209.194 58.166C209.83 57.782 210.562 57.59 211.39 57.59C212.578 57.59 213.508 57.974 214.18 58.742C214.852 59.498 215.188 60.542 215.188 61.874V62.432H208.6C208.648 63.428 208.936 64.19 209.464 64.718C209.992 65.234 210.724 65.492 211.66 65.492C212.188 65.492 212.692 65.414 213.172 65.258C213.652 65.09 214.108 64.82 214.54 64.448L215.044 65.474C214.648 65.846 214.144 66.14 213.532 66.356C212.92 66.56 212.296 66.662 211.66 66.662ZM211.426 58.67C210.598 58.67 209.944 58.928 209.464 59.444C208.984 59.96 208.702 60.638 208.618 61.478H213.928C213.892 60.59 213.658 59.9 213.226 59.408C212.806 58.916 212.206 58.67 211.426 58.67ZM217.298 66.5V57.752H218.72V59.318C219.188 58.262 220.148 57.68 221.6 57.572L222.122 57.518L222.23 58.778L221.312 58.886C220.484 58.958 219.854 59.222 219.422 59.678C218.99 60.122 218.774 60.734 218.774 61.514V66.5H217.298ZM223.569 55.574V53.936H225.369V55.574H223.569ZM223.749 66.5V57.752H225.207V66.5H223.749ZM230.686 66.662C230.086 66.662 229.546 66.548 229.066 66.32C228.598 66.08 228.226 65.756 227.95 65.348C227.674 64.94 227.536 64.484 227.536 63.98C227.536 63.344 227.698 62.84 228.022 62.468C228.358 62.096 228.904 61.832 229.66 61.676C230.428 61.508 231.472 61.424 232.792 61.424H233.368V60.866C233.368 60.122 233.212 59.588 232.9 59.264C232.6 58.928 232.114 58.76 231.442 58.76C230.914 58.76 230.404 58.838 229.912 58.994C229.42 59.138 228.916 59.378 228.4 59.714L227.896 58.652C228.352 58.328 228.904 58.07 229.552 57.878C230.212 57.686 230.842 57.59 231.442 57.59C232.57 57.59 233.404 57.866 233.944 58.418C234.496 58.97 234.772 59.828 234.772 60.992V66.5H233.404V64.988C233.176 65.504 232.822 65.912 232.342 66.212C231.874 66.512 231.322 66.662 230.686 66.662ZM230.92 65.564C231.64 65.564 232.228 65.318 232.684 64.826C233.14 64.322 233.368 63.686 233.368 62.918V62.378H232.81C231.838 62.378 231.07 62.426 230.506 62.522C229.954 62.606 229.564 62.762 229.336 62.99C229.12 63.206 229.012 63.506 229.012 63.89C229.012 64.382 229.18 64.784 229.516 65.096C229.864 65.408 230.332 65.564 230.92 65.564ZM240.159 66.662C239.271 66.662 238.599 66.404 238.143 65.888C237.699 65.36 237.477 64.598 237.477 63.602V53.81H238.935V63.494C238.935 64.778 239.445 65.42 240.465 65.42C240.765 65.42 241.035 65.384 241.275 65.312L241.239 66.536C240.867 66.62 240.507 66.662 240.159 66.662ZM245.668 66.662C244.984 66.662 244.336 66.566 243.724 66.374C243.112 66.182 242.608 65.912 242.212 65.564L242.68 64.538C243.112 64.886 243.586 65.144 244.102 65.312C244.63 65.468 245.164 65.546 245.704 65.546C246.388 65.546 246.904 65.42 247.252 65.168C247.6 64.916 247.774 64.574 247.774 64.142C247.774 63.806 247.66 63.542 247.432 63.35C247.204 63.146 246.844 62.99 246.352 62.882L244.714 62.522C243.226 62.198 242.482 61.43 242.482 60.218C242.482 59.426 242.794 58.79 243.418 58.31C244.054 57.83 244.882 57.59 245.902 57.59C246.502 57.59 247.072 57.686 247.612 57.878C248.164 58.058 248.62 58.328 248.98 58.688L248.494 59.714C248.146 59.39 247.738 59.144 247.27 58.976C246.814 58.796 246.358 58.706 245.902 58.706C245.23 58.706 244.72 58.838 244.372 59.102C244.024 59.366 243.85 59.714 243.85 60.146C243.85 60.818 244.294 61.25 245.182 61.442L246.82 61.784C247.588 61.952 248.17 62.222 248.566 62.594C248.962 62.954 249.16 63.446 249.16 64.07C249.16 64.874 248.842 65.51 248.206 65.978C247.57 66.434 246.724 66.662 245.668 66.662Z" fill="#E3B873"/>
</g>
<g filter="url(#filter1_d)">
<circle cx="56" cy="46" r="36" fill="#E3B873"/>
</g>
<path d="M56.3396 53.2782C55.9614 53.2782 55.6526 53.5775 55.6526 53.9493V55.2739C55.6526 55.6457 55.9614 55.9449 56.3396 55.9449C56.7178 55.9449 57.0265 55.6457 57.0265 55.2739V53.9493C57.0265 53.5775 56.7178 53.2782 56.3396 53.2782Z" fill="white" stroke="white" stroke-width="0.1"/>
<path d="M73.0581 44.0004L73.0581 44.0004C72.6069 41.8425 71.5951 39.8085 70.1321 38.1178C68.7237 36.4902 66.9214 35.2089 64.9118 34.4013C64.5828 33.0653 63.8927 31.6877 62.5386 30.6503C61.2205 29.6405 59.8931 29.4459 59.8338 29.4375L59.8338 29.4375C59.6374 29.4102 59.4377 29.4672 59.2872 29.5945C59.1366 29.7218 59.0498 29.9068 59.0498 30.1018V33.4054H56.8254C56.236 31.4913 54.4142 30.0933 52.2634 30.0933C50.0652 30.0933 48.2096 31.5532 47.6632 33.5323C44.5152 33.9581 41.6197 35.4488 39.4692 37.7623L39.5059 37.7963L39.4692 37.7623C37.2 40.2038 35.95 43.3646 35.95 46.6624C35.95 54.0521 39.8839 60.0623 41.0891 61.7278C41.4705 62.2549 42.0945 62.5691 42.7582 62.5691H45.4692C46.5961 62.5691 47.515 61.675 47.515 60.5732V59.7716C48.1849 59.8693 48.8649 59.9194 49.5457 59.9194H55.6528V60.5732C55.6528 61.675 56.5717 62.5691 57.6986 62.5691H60.6765C61.634 62.5691 62.4756 61.9067 62.6767 60.9917L62.9969 59.5352C67.173 58.5336 70.5324 55.6771 72.1959 51.9705H74.6837C75.4359 51.9705 76.05 51.3736 76.05 50.6371V45.3377C76.05 44.981 75.9075 44.6458 75.6493 44.3941C75.3912 44.1425 75.0483 44.0041 74.6838 44.0041H74.6837H74.6837H74.6837H74.6836H74.6836H74.6836H74.6835L73.0592 44.0043C73.0587 44.003 73.0584 44.0017 73.0581 44.0004ZM74.6762 50.5869H74.6761V50.6284H72.7111C73.0469 49.5848 73.2538 48.4889 73.3138 47.3596C73.3337 46.9883 73.0411 46.6738 72.6633 46.6547C72.2857 46.636 71.9615 46.9187 71.9418 47.29C71.6746 52.3126 68.1861 56.6062 63.3218 58.0564L64.1936 54.0901C64.2736 53.7265 64.0358 53.3704 63.6656 53.2931C63.2961 53.2156 62.9301 53.4453 62.8503 53.8084L61.3334 60.7099C61.2678 61.0085 60.9919 61.227 60.6765 61.227H57.6984C57.3268 61.227 57.0266 60.9325 57.0266 60.5732V57.9235C57.0266 57.5517 56.7178 57.2524 56.3396 57.2524C55.9614 57.2524 55.6527 57.5517 55.6527 57.9235V58.5773H49.5455C48.8637 58.5773 48.1831 58.5213 47.5148 58.4125V53.949C47.5148 53.5772 47.2061 53.278 46.8279 53.278C46.4497 53.278 46.1409 53.5772 46.1409 53.949V60.5732C46.1409 60.9325 45.8407 61.2271 45.4691 61.2271H42.7582C42.5355 61.2271 42.3366 61.127 42.2111 60.9533L42.2111 60.9533C41.0641 59.3681 37.3239 53.6542 37.3239 46.6624C37.3239 43.699 38.4469 40.8586 40.4864 38.6645L40.4498 38.6304L40.4864 38.6645C42.3401 36.67 44.8092 35.3559 47.5037 34.9137C47.5187 35.3017 47.5834 35.6852 47.695 36.055H47.5074C47.1292 36.055 46.8205 36.3542 46.8205 36.726C46.8205 37.0978 47.1292 37.3971 47.5074 37.3971H57.0191C57.3974 37.3971 57.7061 37.0978 57.7061 36.726C57.7061 36.3542 57.3974 36.055 57.0191 36.055H56.8315C56.9592 35.6325 57.0258 35.192 57.0266 34.7474H59.0498V36.0636C59.0498 36.4354 59.3585 36.7346 59.7367 36.7346C60.1149 36.7346 60.4237 36.4354 60.4237 36.0636V30.9896C61.0183 31.2188 61.843 31.6672 62.5288 32.5227C63.2404 33.4102 63.8056 34.7396 63.8056 36.7261C63.8056 37.0979 64.1144 37.3971 64.4926 37.3971C64.8708 37.3971 65.1795 37.0979 65.1795 36.7261C65.1795 36.4882 65.1716 36.2384 65.1536 35.9805C66.6527 36.7054 67.9978 37.7305 69.0829 38.9844C70.3977 40.5038 71.3068 42.3312 71.712 44.269C71.8426 44.8939 72.4049 45.3465 73.0487 45.3464L74.6762 45.3463V50.5869ZM52.2633 31.4354C54.1334 31.4354 55.6527 32.9186 55.6527 34.7389C55.6527 35.1938 55.5552 35.642 55.371 36.0552H49.1555C48.9714 35.6419 48.8737 35.1938 48.8737 34.7389C48.8737 32.9185 50.3931 31.4354 52.2633 31.4354Z" fill="white" stroke="white" stroke-width="0.1"/>
<path d="M63.9116 44.4405L63.9116 44.4405C64.315 43.3857 65.3808 42.6794 66.5621 42.6794C67.7433 42.6794 68.8093 43.3857 69.2125 44.4405C69.2125 44.4405 69.2125 44.4405 69.2125 44.4405L69.1658 44.4583C69.2887 44.7796 69.1211 45.1373 68.7915 45.2571L63.9116 44.4405ZM63.9116 44.4405C63.7784 44.7888 63.9605 45.1751 64.3155 45.3041M63.9116 44.4405L64.3155 45.3041M64.3155 45.3041C64.67 45.4331 65.0657 45.2577 65.1986 44.9101L64.3155 45.3041ZM68.5691 45.3464C68.6488 45.3464 68.7297 45.3328 68.8086 45.3041L65.1986 44.91C65.4011 44.3805 65.9479 44.0214 66.562 44.0214C67.1761 44.0214 67.723 44.3805 67.9255 44.9101C68.0289 45.1805 68.2913 45.3464 68.5691 45.3464Z" fill="white" stroke="white" stroke-width="0.1"/>
<path d="M55.2116 47.0757C54.5601 46.6339 53.7201 46.3632 52.9502 46.1509V43.072C53.5451 43.1491 54.0484 43.3214 54.4047 43.5342C54.7758 43.7558 54.9733 44.0121 54.9733 44.2406C54.9733 44.6124 55.2821 44.9116 55.6603 44.9116C56.0385 44.9116 56.3472 44.6124 56.3472 44.2406C56.3472 43.585 55.9732 42.9989 55.3589 42.5557C54.754 42.1193 53.9127 41.8182 52.9502 41.7204V41.6944C52.9502 41.3226 52.6414 41.0234 52.2632 41.0234C51.885 41.0234 51.5763 41.3226 51.5763 41.6944V41.7204C50.6138 41.8182 49.7724 42.1193 49.1676 42.5557C48.5533 42.9989 48.1792 43.585 48.1792 44.2406C48.1792 45.1681 48.6508 45.799 49.3149 46.2494C49.9663 46.6912 50.8064 46.9619 51.5763 47.1742V50.2531C50.9814 50.176 50.4781 50.0037 50.1218 49.7909C49.7506 49.5693 49.5532 49.313 49.5532 49.0845C49.5532 48.7127 49.2444 48.4135 48.8662 48.4135C48.488 48.4135 48.1792 48.7127 48.1792 49.0845C48.1792 49.7401 48.5533 50.3262 49.1676 50.7694C49.7724 51.2058 50.6138 51.5069 51.5763 51.6047V51.6307C51.5763 52.0025 51.885 52.3017 52.2632 52.3017C52.6414 52.3017 52.9502 52.0025 52.9502 51.6307V51.6047C53.9127 51.5069 54.754 51.2058 55.3589 50.7694C55.9732 50.3262 56.3472 49.7401 56.3472 49.0845C56.3472 48.157 55.8757 47.5261 55.2116 47.0757ZM51.5763 43.072V45.7681C50.8286 45.5358 50.3248 45.3146 50.0067 45.0733C49.6827 44.8275 49.5532 44.5627 49.5532 44.2406C49.5532 44.0121 49.7506 43.7558 50.1218 43.5342C50.4781 43.3214 50.9814 43.1491 51.5763 43.072ZM54.4047 49.791C54.0484 50.0038 53.545 50.1761 52.9502 50.2532V47.557C53.6979 47.7893 54.2016 48.0105 54.5198 48.2519C54.8437 48.4976 54.9733 48.7625 54.9733 49.0846C54.9733 49.3131 54.7758 49.5694 54.4047 49.791Z" fill="white" stroke="white" stroke-width="0.1"/>
<defs>
<filter id="filter0_d" x="107.828" y="20.36" width="231.653" height="59.302" filterUnits="userSpaceOnUse" color-interpolation-filters="sRGB">
<feFlood flood-opacity="0" result="BackgroundImageFix"/>
<feColorMatrix in="SourceAlpha" type="matrix" values="0 0 0 0 0 0 0 0 0 0 0 0 0 0 0 0 0 0 127 0"/>
<feOffset dy="3"/>
<feGaussianBlur stdDeviation="5"/>
<feColorMatrix type="matrix" values="0 0 0 0 0.890196 0 0 0 0 0.721569 0 0 0 0 0.45098 0 0 0 0.15 0"/>
<feBlend mode="normal" in2="BackgroundImageFix" result="effect1_dropShadow"/>
<feBlend mode="normal" in="SourceGraphic" in2="effect1_dropShadow" result="shape"/>
</filter>
<filter id="filter1_d" x="0" y="0" width="112" height="112" filterUnits="userSpaceOnUse" color-interpolation-filters="sRGB">
<feFlood flood-opacity="0" result="BackgroundImageFix"/>
<feColorMatrix in="SourceAlpha" type="matrix" values="0 0 0 0 0 0 0 0 0 0 0 0 0 0 0 0 0 0 127 0"/>
<feOffset dy="10"/>
<feGaussianBlur stdDeviation="10"/>
<feColorMatrix type="matrix" values="0 0 0 0 0.929412 0 0 0 0 0.752941 0 0 0 0 0.470588 0 0 0 0.2 0"/>
<feBlend mode="normal" in2="BackgroundImageFix" result="effect1_dropShadow"/>
<feBlend mode="normal" in="SourceGraphic" in2="effect1_dropShadow" result="shape"/>
</filter>
</defs>
</svg>
